Patient4_TMGait_0pt5_01_right_26_EMG.mot
version=1
nRows=20
nColumns=33
inDegrees=no
endheader
time	1LAddLong	2LGlutMax	3LGlutMed	4LIliopsoas	5LSemiMemb	6LBicFemLong	7LRecFem	8LVastMed	9LVastLat	10LGasMed	11LTibAnt	12lTibPost	13LPeroneusLong	14LSol	15LExtDigLong	16LFlexDigLong	17RAddLong	18RGlutMax	19RGlutMed	20RIliopsoas	21RSemiMemb	22RBicFemLong	23RRecFem	24RVastMed	25RVastLat	26RGasMed	27RTibAnt	28RTibPost	29RPeroneusLong	30RSol	31RExtDigLong	32RFlexDigLong
35.508	0.016327	-0.046539	0.026245	0.033417	0.014038	-0.019531	0.020752	0.002747	0.11093	0.025787	-0.14511	0.001678	0.17548	-0.18616	-0.016479	-0.016785	0.028839	-0.17273	0.22232	0.053101	-0.080872	0.071716	0.039825	-0.089569	-0.003204	-0.030518	0.35812	-0.002289	0.18448	-0.034485	-0.00061	-0.000916
35.509	0.01236	-0.02594	0.030823	0.012817	0.013428	0.002594	0.033264	-0.004272	0.19394	-0.018311	-0.18036	0.013885	0.36407	-0.14008	-0.02533	0.004425	0.027771	-0.12711	0.27176	0.18051	0.040588	0.077667	0.023346	-0.031128	0.001221	-0.050964	0.52765	-0.000916	0.066681	0.086975	-0.001984	0.009155
35.51	-0.001678	-0.046539	-0.039825	0.007019	0.002441	0.011292	0.15152	0.002441	0.16769	-0.051727	-0.085297	0.001068	0.52765	-0.1001	0.072784	-0.011902	-0.039215	-0.1944	0.06073	0.18112	0.1265	0.033417	0.014801	0.020752	0.015259	-0.055237	0.73669	-0.006561	-0.047302	0.19119	0.000305	0.006409
35.511	0.001678	-0.064087	-0.031281	0.001221	0.007324	0.011902	0.103	0.003967	0.094452	-0.079346	0.090637	0.010223	0.036469	-0.002747	0.092468	-0.003967	-0.042114	-0.20721	0.090332	0.042267	0.11185	0.051575	0.031128	-0.030823	0.00473	-0.059509	0.77698	-0.002899	-0.12741	0.15671	0.002594	0.003204
35.512	0.003815	-0.063629	-0.013428	0.018921	0.010071	0.029755	0.071869	0.007172	0.09613	-0.035706	0.1442	0.005798	-0.68756	0.0177	0.070648	-0.023346	-0.055237	-0.23102	0.084839	0.003204	-0.007782	0.090179	0.010681	0.00473	0.010986	-0.065613	0.4126	-0.003662	-0.034332	0.085144	-0.002136	0.005951
35.513	-0.002899	-0.067139	-0.029449	0.034637	0.007782	0.016632	0.11032	0.000305	0.10803	0.002747	0.35629	0.004883	-0.39978	0.010071	-0.036011	-0.023956	-0.052795	-0.17487	0.10849	-0.054932	-0.011292	0.046844	0.00473	-0.007477	0.005493	-0.064545	0.061646	-0.005035	0.28671	0.040283	-0.000458	0.019226
35.514	0.004883	-0.071411	-0.036621	0.026093	0.001373	0.032654	0.17593	0.002289	0.083466	0.018005	0.3447	0.00946	-0.18234	0.14099	0.29205	-0.017242	-0.003967	-0.15961	0.16785	-0.073547	0.032806	0.006104	0.023651	-0.01358	0.012665	-0.067749	-0.3833	-0.005798	0.61432	0.062256	-0.00061	0.012512
35.515	0.009308	-0.055847	-0.033875	0.00946	0.008545	0.03067	0.20416	0.001526	0.06897	0.011597	0.12054	0.009003	-0.10666	0.22751	-0.33264	-0.010223	0.018921	-0.13702	0.093384	-0.10941	0.018616	-0.001984	0.076752	-0.069885	0.005341	-0.059814	-0.72967	-0.002136	0.46097	0.000305	-0.005035	0.013123
35.516	0.004883	-0.050049	-0.047607	0.014038	0.011292	0.012207	0.1741	0.002136	0.055237	0.023193	0.005341	0.010529	0.073242	0.12909	-0.06073	-0.005646	-0.015717	-0.16708	0.054932	-0.12009	-0.047607	0.011749	0.088196	-0.12863	-0.010223	-0.057373	-0.58762	-0.000916	0.063324	0.017395	0.000305	0.016327
35.517	0.006256	-0.063171	-0.06546	-0.012817	0.009308	-0.012512	0.15457	0	0.078125	0.012054	-0.056305	0.004883	0.032654	0.13336	-0.18005	-0.006256	-0.067749	-0.14847	0.080566	-0.086823	-0.19119	0.030365	0.05661	-0.06012	-0.003204	-0.054779	-0.32547	-0.00412	-0.25223	0.002289	-0.000916	0.02533
35.518	0.005341	-0.059967	-0.032959	-0.00473	0.010376	-0.008392	0.1413	0.002136	0.078125	-0.019226	-0.068817	-0.001678	0.075531	0.095062	-0.085297	0.000458	-0.068054	-0.17258	-0.001373	0.029602	-0.11337	0.075531	0.054474	0.000763	0.017395	-0.052948	-0.011597	-0.000305	-0.42114	0.010223	-0.001984	0.019226
35.519	0.019073	-0.06485	-0.032806	0.006104	0.011597	-0.029297	0.091858	-0.001984	0.037384	-0.035858	-0.004883	0.027008	0.13123	0.12787	0.2829	-0.001831	-0.068054	-0.16541	-0.09964	0.14206	-0.000916	0.1355	0.050507	0.015106	-0.006409	-0.060425	0.3157	-0.002747	-0.14496	0.066681	-0.001831	0.019073
35.52	0.011139	-0.072784	-0.085602	0.003815	0.005798	-0.020905	0.11459	0.008087	0.011444	0.001373	0.012817	0.006714	0.14099	-0.009613	0.40924	-0.00473	-0.058289	-0.12512	0.046387	0.1355	0.10452	0.052338	0.029602	-0.023956	0.001221	-0.062714	0.32822	-0.002136	0.050354	0.064697	-0.002136	0.013275
35.521	0.007172	-0.051575	-0.11475	0.00946	0.009003	-0.00946	0.15625	0.003967	0.020752	0.044861	0.038147	0.010986	0.26459	-0.18524	0.10147	-0.006866	-0.045776	-0.11887	0.072632	0.044403	0.10086	-0.018768	0.032654	-0.031433	0.006866	-0.083008	-0.015259	-0.003357	0.025482	0.028992	-0.000458	0.006409
35.522	0.009918	-0.03952	-0.11505	0.018463	0.005646	-0.00412	0.1445	0.008392	0.014343	0.032654	0.098724	0.010986	0.12665	-0.18295	-0.11765	-0.011444	-0.033722	-0.14343	0.23148	-0.05127	0.059814	-0.055084	0.037537	-0.009918	0.006104	-0.097656	-0.063324	-0.000763	0.13672	-0.011902	0.000458	0.003815
35.523	0.018921	-0.051422	-0.042725	0.020752	0.015869	-0.036316	0.03479	0.010223	0.068512	-0.026855	0.072479	0.009613	0.28091	-0.1207	-0.090332	-0.001068	0.003967	-0.15289	0.22629	-0.10361	0.037537	-0.15579	0.030975	-0.030975	-0.015717	-0.085449	0.056	-0.004578	0.24536	0.036163	-0.001068	0.007019
35.524	0.01297	-0.068054	-0.13138	0.022278	0.018616	-0.027924	0.066223	0.005493	0.10483	-0.049133	0.002594	0.026703	-0.35034	-0.06485	-0.054626	0.00061	0.015717	-0.11536	0.066833	-0.010071	0.02243	-0.1593	0.03006	-0.049438	-0.010986	-0.088501	0.12253	-0.00351	0.066376	0.00061	-0.000153	-0.002747
35.525	0.005798	-0.077515	-0.018616	0.000153	0.00824	0.000305	0.14023	-0.006714	0.05661	-0.081787	-0.069275	0.016174	-0.12466	-0.033264	0.26581	-0.00824	-0.007172	-0.072327	0.055389	0.011139	-0.023956	-0.14038	0.00412	-0.045929	0.006714	-0.013885	0.1329	-0.009003	-0.41702	-0.044556	-0.00061	-0.004883
35.526	-0.002441	-0.068665	-0.068665	0.007324	0.00473	0.00351	0.21301	0.001526	-0.025482	-0.075684	-0.040588	0.007324	0.25559	0.003357	-0.045471	-0.009308	-0.024872	-0.092316	-0.026855	-0.011902	-0.0177	-0.087585	-0.003204	-0.028839	-0.000305	0.021973	0.10635	-0.006714	-0.15503	-0.025787	-0.002441	0.004272
35.527	-0.004425	-0.040283	-0.010681	0.005493	0.010986	-0.007324	0.2739	0.006561	-0.052948	-0.040894	-0.049744	0.010986	0.33295	-0.089417	-0.23834	-0.012817	-0.012817	-0.12024	-0.24933	0.039825	0.022736	-0.074158	-0.010223	-0.034943	0.012665	-0.019531	0.10315	-0.010986	0.027313	0.036163	-0.003357	0.014801
